<?xml version="1.0" encoding="utf-8"?>
<!-- Generator: Adobe Illustrator 22.0.1, SVG Export Plug-In . SVG Version: 6.00 Build 0)  -->
<svg version="1.1" id="Camada_1" xmlns="http://www.w3.org/2000/svg" xmlns:xlink="http://www.w3.org/1999/xlink" x="0px" y="0px"
	 viewBox="0 0 55.2 92" style="enable-background:new 0 0 55.2 92;" xml:space="preserve">
<style type="text/css">
	.st0{fill:#FFFFFF;}
</style>
<path class="st0" d="M54.4,46.6c-0.8,1.6-2.1,2.8-3.8,3.3l0.4,1c0.4,1.1,0.3,2.4-0.2,3.4c-0.5,1.1-1.4,1.9-2.5,2.3l-1,0.4
	c0.4,2.3,0.1,4.7-1,6.9c-1.4,3.1-4.2,5.4-7.4,6.2L37,73.8l2.4,1.2l-7.6,16L0,75.9l7.6-16l2.4,1.2l1.1-2.2L4.2,39.4
	C4.1,39.3,4.1,39.2,4,39c-1.1-1.8-1.2-3.9-0.3-5.8c1-2.1,3-3.3,5.1-3.5L3.3,14C2.5,11.7,3.7,9.2,6,8.3l22.3-8
	C30.6-0.6,33.1,0.6,34,3c0,0,0,0,0,0l2.4,6.8l0.5,1.4c1.6-0.7,3.4-0.7,5,0.1c3,1.4,4.3,5.1,2.9,8.2c-0.1,0.2-0.2,0.4-0.4,0.6
	c0.2,0.1,0.5,0.2,0.7,0.3c3,1.4,4.3,5.1,2.9,8.2c-0.1,0.2-0.2,0.4-0.4,0.6c0.2,0.1,0.5,0.2,0.7,0.3c3,1.4,4.3,5.1,2.9,8.2
	c-0.1,0.2-0.2,0.4-0.4,0.6c0.2,0.1,0.5,0.2,0.7,0.3C54.5,39.9,55.8,43.6,54.4,46.6z M30.6,87.4l5.3-11.1l-10.4-4.9
	c1.1,2.7,1,5.7-0.2,8.3l-2,4.2C23.2,83.9,30.6,87.4,30.6,87.4z M8.9,63.6L3.6,74.6l17.1,8.1l2-4.2c1.8-3.8,0.2-8.3-3.6-10.1
	L8.9,63.6z M13.7,58.1c0.1,0.1,0.1,0.2,0.1,0.3l0.3,0.6l-1.6,3.4l22,10.4l2.3-4.9l0.7-0.1c2.7-0.6,5-2.4,6.2-4.9
	c0.7-1.5,1-3.1,0.8-4.8l-18.6,6.7c-1.1,0.4-2.3,0.3-3.4-0.2c-1.1-0.5-1.9-1.4-2.3-2.5l-6-17L8,42L13.7,58.1z M6.2,34.4
	c-0.8,1.7-0.1,3.7,1.6,4.5l12.2,5.8c1.7,0.8,3.7,0.1,4.5-1.6c0.8-1.7,0.1-3.7-1.6-4.5l-12.2-5.8c0,0-0.1,0-0.2-0.1L10,32.5
	C8.5,32.2,6.9,32.9,6.2,34.4z M31.4,3.9c-0.1-0.2-0.2-0.4-0.4-0.6c-0.1-0.1-0.2-0.1-0.2-0.2c-0.2-0.1-0.4-0.2-0.7-0.3
	c-0.1,0-0.2-0.1-0.3-0.1c-0.2,0-0.5,0-0.7,0.1l-22.3,8c-0.9,0.3-1.4,1.3-1.1,2.3l1.5,4.3l25.6-9.2C32.9,8.2,31.4,3.9,31.4,3.9z
	 M33.8,10.7L8.2,19.9l3.7,10.4l12.2,5.8c3,1.4,4.3,5.1,2.9,8.2c-1.4,3.1-5.1,4.4-8.1,2.9l-1.2-0.6L22.8,61c0.3,0.9,1.3,1.4,2.2,1.1
	c0,0,0,0,0,0l21.5-7.7l0.8-0.3c0.9-0.3,1.4-1.3,1.1-2.3C48.4,51.8,33.8,10.7,33.8,10.7z M40.7,13.8c-0.9-0.4-2-0.4-2.9,0l2.2,6.4
	c1-0.2,1.8-0.9,2.3-1.9C43.1,16.6,42.4,14.6,40.7,13.8z M43.9,22.8c-0.9-0.4-2-0.4-2.9,0l2.2,6.4c1-0.2,1.8-0.9,2.3-1.9
	C46.3,25.7,45.6,23.6,43.9,22.8z M47.1,31.9c-0.9-0.4-2-0.4-2.9,0l2.3,6.4c1-0.2,1.8-0.9,2.3-1.9C49.5,34.7,48.8,32.7,47.1,31.9z
	 M50.3,40.9c-0.9-0.4-2-0.4-2.9,0l2.2,6.4c1-0.2,1.8-0.9,2.3-1.9C52.7,43.8,52,41.8,50.3,40.9C50.3,40.9,50.3,40.9,50.3,40.9z
	 M31.8,56.3c-2.7-1.3-3.9-4.5-2.6-7.3c1.3-2.7,4.5-3.9,7.2-2.6c2.7,1.3,3.8,4.5,2.6,7.2C37.8,56.4,34.5,57.6,31.8,56.3z M35.3,48.9
	c-1.4-0.6-3-0.1-3.6,1.3c-0.6,1.4-0.1,3,1.3,3.6c1.3,0.6,3,0.1,3.6-1.3C37.2,51.2,36.7,49.6,35.3,48.9z M17.1,9.1l3.6-1.3
	c0.7-0.3,1.5,0.1,1.7,0.8c0,0,0,0,0,0c0.3,0.7-0.1,1.5-0.8,1.7L18,11.6c-0.4,0.1-0.7,0.1-1-0.1c-0.7-0.3-1-1.1-0.6-1.8
	C16.5,9.5,16.8,9.2,17.1,9.1z M21,76.1c-1.1,2.4-4,3.4-6.3,2.3c-2.4-1.1-3.4-4-2.2-6.3c1.1-2.4,4-3.4,6.3-2.3
	C21.1,70.8,22.1,73.7,21,76.1z M17.5,72.2c-1-0.5-2.2,0-2.7,1c-0.5,1-0.1,2.2,1,2.7c1,0.5,2.2,0,2.7-1C19,73.9,18.6,72.7,17.5,72.2z
	"/>
</svg>
