<?xml version="1.0" encoding="utf-8"?>
<!-- Generator: Adobe Illustrator 23.1.0, SVG Export Plug-In . SVG Version: 6.00 Build 0)  -->
<svg version="1.1" id="Camada_1" xmlns="http://www.w3.org/2000/svg" xmlns:xlink="http://www.w3.org/1999/xlink" x="0px" y="0px"
	 viewBox="0 0 115 39" style="enable-background:new 0 0 115 39;" xml:space="preserve">
<style type="text/css">
	.st0{fill:#555860;}
	.st1{fill:#D22828;}
</style>
<g>
	<g>
		<g>
			<path class="st0" d="M44.54,29.94c0,0.88-0.17,1.66-0.51,2.32c-0.34,0.66-0.83,1.21-1.46,1.66c-0.64,0.44-1.4,0.77-2.29,0.99
				c-0.89,0.22-1.88,0.33-2.97,0.33h-9.18V15.9h8.96c1.99,0,3.54,0.45,4.67,1.35c1.13,0.9,1.69,2.12,1.69,3.65v0.05
				c0,1.09-0.24,1.96-0.74,2.61c-0.49,0.65-1.09,1.18-1.78,1.56c0.55,0.22,1.05,0.47,1.5,0.75c0.45,0.28,0.83,0.6,1.14,0.98
				c0.31,0.38,0.55,0.81,0.71,1.31c0.17,0.5,0.25,1.07,0.25,1.71V29.94z M39.26,21.62c0-0.64-0.24-1.14-0.72-1.48
				c-0.48-0.34-1.17-0.51-2.07-0.51h-4.2v4.09h3.92c0.94,0,1.69-0.16,2.24-0.48c0.55-0.32,0.83-0.84,0.83-1.56V21.62z M40.34,29.36
				c0-0.64-0.25-1.16-0.75-1.53c-0.5-0.38-1.3-0.57-2.4-0.57h-4.92v4.25h5.05c0.94,0,1.68-0.17,2.21-0.51
				c0.53-0.34,0.8-0.87,0.8-1.59V29.36z"/>
			<path class="st0" d="M67.13,25.57c0,1.36-0.25,2.63-0.75,3.81c-0.5,1.18-1.2,2.2-2.11,3.07c-0.91,0.87-1.99,1.55-3.25,2.04
				c-1.25,0.5-2.64,0.75-4.17,0.75h-7.54V15.9h7.54c1.53,0,2.92,0.25,4.17,0.73c1.25,0.49,2.33,1.17,3.25,2.03
				c0.91,0.87,1.62,1.88,2.11,3.05c0.5,1.17,0.75,2.44,0.75,3.8V25.57z M62.68,25.57c0-0.87-0.14-1.65-0.41-2.36
				c-0.28-0.71-0.67-1.32-1.19-1.84c-0.51-0.51-1.13-0.91-1.85-1.2c-0.72-0.29-1.51-0.43-2.38-0.43h-3.29V31.4h3.29
				c0.86,0,1.66-0.14,2.38-0.41c0.72-0.28,1.34-0.67,1.85-1.19c0.52-0.52,0.91-1.13,1.19-1.84c0.28-0.71,0.41-1.49,0.41-2.33V25.57z
				"/>
			<path class="st0" d="M86.94,35.24V22.61l-5.47,8.26h-0.11l-5.36-8.18v12.54h-4.2V15.9h4.59l5.08,8.18l5.08-8.18h4.58v19.34H86.94
				z"/>
			<path class="st0" d="M114.18,32.5c-0.99,0.85-2.18,1.57-3.55,2.17c-1.37,0.6-2.94,0.9-4.71,0.9c-1.51,0-2.89-0.25-4.13-0.75
				c-1.24-0.5-2.31-1.19-3.21-2.07c-0.89-0.88-1.59-1.93-2.09-3.15c-0.5-1.22-0.74-2.54-0.74-3.98v-0.05c0-1.38,0.25-2.68,0.76-3.88
				c0.51-1.21,1.21-2.27,2.11-3.18c0.9-0.91,1.98-1.63,3.22-2.15c1.24-0.53,2.59-0.79,4.05-0.79c0.87,0,1.65,0.06,2.36,0.18
				c0.71,0.12,1.37,0.29,1.98,0.51c0.61,0.22,1.18,0.5,1.71,0.83c0.54,0.33,1.05,0.71,1.55,1.13l-2.68,3.23
				c-0.37-0.31-0.74-0.59-1.1-0.83c-0.37-0.24-0.75-0.44-1.15-0.61c-0.4-0.16-0.83-0.29-1.28-0.39c-0.46-0.09-0.97-0.14-1.52-0.14
				c-0.78,0-1.5,0.16-2.17,0.49c-0.67,0.32-1.26,0.76-1.77,1.3c-0.51,0.55-0.9,1.18-1.19,1.91c-0.29,0.73-0.43,1.51-0.43,2.34v0.06
				c0,0.89,0.15,1.7,0.43,2.45c0.29,0.75,0.69,1.4,1.22,1.95c0.52,0.55,1.14,0.98,1.86,1.29c0.72,0.3,1.5,0.46,2.35,0.46
				c0.78,0,1.5-0.1,2.18-0.29c0.68-0.19,1.29-0.49,1.82-0.87v-2.78h-4.28v-3.68h8.4V32.5z"/>
		</g>
	</g>
	<g>
		<path class="st0" d="M15.6,21.52l0.1-0.06l0,0l4.49-2.58c0.04-0.03,0.07-0.05,0.11-0.07c0.37-0.2,0.67-0.5,0.87-0.87
			c0.02-0.04,0.04-0.07,0.05-0.11c0.02-0.05,0.04-0.09,0.06-0.14c0.08-0.22,0.12-0.46,0.12-0.72c0-0.5-0.16-0.91-0.44-1.26
			c0-0.01-0.01-0.02-0.01-0.02c0.05,0.05,0.84,0.83,0.84,2.08c0,0.89,0,7.07,0,7.07v0.12c0,0.65-0.11,2-1.69,2.9l-8.21,4.77
			c-0.98,0.56-1.93-0.04-1.93-0.04l-6.75-3.87L15.6,21.52"/>
		<g>
			<path class="st1" d="M20.2,18.88c0.04-0.03,0.07-0.05,0.11-0.07c0.37-0.2,0.67-0.5,0.87-0.87c0.02-0.04,0.04-0.07,0.05-0.11
				c0.02-0.05,0.04-0.09,0.06-0.14c0.08-0.22,0.12-0.46,0.12-0.72c0-0.5-0.16-0.91-0.44-1.26c-0.18-0.22-0.41-0.42-0.69-0.6
				c-0.11-0.07-0.16-0.09-0.28-0.17L0.87,3.87v9.12l14.71,8.52l0.02,0.01L20.2,18.88z"/>
		</g>
	</g>
</g>
</svg>
